# File exported by Houdini 20.5.332 (www.sidefx.com)
# 48 points
# 144 vertices
# 36 primitives
# Bounds: [-19.1499996, -0.25, -13.3500004] to [19.1499996, 13.5500002, 13.3500004]
g 
v 18.8999996 -0.25 13.1000004
v -18.8999996 -0.25 13.1000004
v 18.8999996 0.25 13.1000004
v -18.8999996 0.25 13.1000004
v -18.8999996 -0.25 -13.1000004
v 18.8999996 -0.25 -13.1000004
v -18.8999996 0.25 -13.1000004
v 18.8999996 0.25 -13.1000004
v 18.8999996 13.0500002 13.1000004
v -18.8999996 13.0500002 13.1000004
v 18.8999996 13.5500002 13.1000004
v -18.8999996 13.5500002 13.1000004
v -18.8999996 13.0500002 -13.1000004
v 18.8999996 13.0500002 -13.1000004
v -18.8999996 13.5500002 -13.1000004
v 18.8999996 13.5500002 -13.1000004
v 19.1499996 -0.25 12.8500004
v -19.1499996 -0.25 12.8500004
v 19.1499996 -0.25 13.3500004
v -19.1499996 -0.25 13.3500004
v -19.1499996 13.5500002 12.8500004
v 19.1499996 13.5500002 12.8500004
v -19.1499996 13.5500002 13.3500004
v 19.1499996 13.5500002 13.3500004
v -19.1499996 -0.25 -12.8500004
v 19.1499996 -0.25 -12.8500004
v -19.1499996 -0.25 -13.3500004
v 19.1499996 -0.25 -13.3500004
v 19.1499996 13.5500002 -12.8500004
v -19.1499996 13.5500002 -12.8500004
v 19.1499996 13.5500002 -13.3500004
v -19.1499996 13.5500002 -13.3500004
v 19.1499996 13.5499992 13.1000004
v 19.1499996 -0.25 13.1000004
v 18.6499996 13.5499992 13.1000004
v 18.6499996 -0.25 13.1000004
v 19.1499996 -0.25 -13.1000004
v 19.1499996 13.5499992 -13.1000004
v 18.6499996 -0.25 -13.1000004
v 18.6499996 13.5499992 -13.1000004
v -19.1499996 13.5499992 -13.1000004
v -19.1499996 -0.25 -13.1000004
v -18.6499996 13.5499992 -13.1000004
v -18.6499996 -0.25 -13.1000004
v -19.1499996 -0.25 13.1000004
v -19.1499996 13.5499992 13.1000004
v -18.6499996 -0.25 13.1000004
v -18.6499996 13.5499992 13.1000004
vt 0.732532382 0.796875 0
vt 0.732532382 0.801707566 0
vt 0.3671875 0.801707566 0
vt 0.3671875 0.796875 0
vt 0.365344882 0.791015625 0
vt 0.365344882 0.79584825 0
vt 0 0.79584825 0
vt 0 0.791015625 0
vt 0.365344882 0 0
vt 0.365344882 0.253228486 0
vt 0 0.253228486 0
vt 0 4.00394757e-17 0
vt 0.365344882 0.254882812 0
vt 0.365344882 0.508111298 0
vt 0 0.508111298 0
vt 0 0.254882812 0
vt 0.997369051 0.544921875 0
vt 0.997369051 0.5497545 0
vt 0.744140625 0.5497545 0
vt 0.744140625 0.544921875 0
vt 0.997369111 0.556640625 0
vt 0.997369111 0.56147325 0
vt 0.744140625 0.56147325 0
vt 0.744140625 0.556640625 0
vt 0.732532382 0.791015625 0
vt 0.732532382 0.79584825 0
vt 0.3671875 0.79584825 0
vt 0.3671875 0.791015625 0
vt 0.365344882 0.796875 0
vt 0.365344882 0.801707625 0
vt 0 0.801707625 0
vt 0 0.796875 0
vt 0.732532382 0.254882812 0
vt 0.732532382 0.508111298 0
vt 0.3671875 0.508111298 0
vt 0.3671875 0.254882812 0
vt 0.732532382 0 0
vt 0.732532382 0.253228486 0
vt 0.3671875 0.253228486 0
vt 0.3671875 0 0
vt 0.997369111 0.580078125 0
vt 0.997369111 0.584910691 0
vt 0.744140625 0.584910691 0
vt 0.744140625 0.580078125 0
vt 0.997369111 0.55078125 0
vt 0.997369111 0.555613875 0
vt 0.744140625 0.555613875 0
vt 0.744140625 0.55078125 0
vt 0.370177537 0.779296875 0
vt 0.370177537 0.7841295 0
vt 0 0.7841295 0
vt 0 0.779296875 0
vt 0.74224782 0.779296875 0
vt 0.74224782 0.7841295 0
vt 0.372070312 0.7841295 0
vt 0.372070312 0.779296875 0
vt 0.74224776 0.64453125 0
vt 0.74224776 0.777911127 0
vt 0.372070312 0.777911127 0
vt 0.372070312 0.64453125 0
vt 0.370177478 0.509765625 0
vt 0.370177478 0.643145561 0
vt 0 0.643145561 0
vt 0 0.509765625 0
vt 0.877520502 0.62109375 0
vt 0.877520502 0.625926316 0
vt 0.744140625 0.625926316 0
vt 0.744140625 0.62109375 0
vt 0.877520502 0.5859375 0
vt 0.877520502 0.590770125 0
vt 0.744140625 0.590770125 0
vt 0.744140625 0.5859375 0
vt 0.370177537 0.78515625 0
vt 0.370177537 0.789988875 0
vt 0 0.789988875 0
vt 0 0.78515625 0
vt 0.74224782 0.78515625 0
vt 0.74224782 0.789988875 0
vt 0.372070312 0.789988875 0
vt 0.372070312 0.78515625 0
vt 0.74224782 0.509765625 0
vt 0.74224782 0.643145561 0
vt 0.372070312 0.643145561 0
vt 0.372070312 0.509765625 0
vt 0.370177537 0.64453125 0
vt 0.370177537 0.777911127 0
vt 0 0.777911127 0
vt 0 0.64453125 0
vt 0.877520502 0.626953125 0
vt 0.877520502 0.631785691 0
vt 0.744140625 0.631785691 0
vt 0.744140625 0.626953125 0
vt 0.877520502 0.591796875 0
vt 0.877520502 0.5966295 0
vt 0.744140625 0.5966295 0
vt 0.744140625 0.591796875 0
vt 0.877520502 0.59765625 0
vt 0.877520502 0.602488875 0
vt 0.744140625 0.602488875 0
vt 0.744140625 0.59765625 0
vt 0.877520502 0.603515625 0
vt 0.877520502 0.60834825 0
vt 0.744140625 0.60834825 0
vt 0.744140625 0.603515625 0
vt 0.997369111 0.133379892 0
vt 0.744140625 0.133379892 0
vt 0.744140625 4.00394757e-17 0
vt 0.997369111 0 0
vt 0.997369111 0.402911067 0
vt 0.744140625 0.402911067 0
vt 0.744140625 0.26953125 0
vt 0.997369111 0.26953125 0
vt 0.997369111 0.5625 0
vt 0.997369111 0.567332566 0
vt 0.744140625 0.567332566 0
vt 0.744140625 0.5625 0
vt 0.997369111 0.568359375 0
vt 0.997369111 0.573191941 0
vt 0.744140625 0.573191941 0
vt 0.744140625 0.568359375 0
vt 0.877520561 0.609375 0
vt 0.877520561 0.614207566 0
vt 0.744140625 0.614207566 0
vt 0.744140625 0.609375 0
vt 0.877520502 0.615234375 0
vt 0.877520502 0.620066941 0
vt 0.744140625 0.620066941 0
vt 0.744140625 0.615234375 0
vt 0.997369111 0.537676692 0
vt 0.744140625 0.537676692 0
vt 0.744140625 0.404296875 0
vt 0.997369111 0.404296875 0
vt 0.997369111 0.268145531 0
vt 0.744140625 0.268145531 0
vt 0.744140625 0.134765625 0
vt 0.997369111 0.134765625 0
vt 0.997369111 0.57421875 0
vt 0.997369111 0.579051316 0
vt 0.744140625 0.579051316 0
vt 0.744140625 0.57421875 0
vt 0.997369111 0.5390625 0
vt 0.997369111 0.543895125 0
vt 0.744140625 0.543895125 0
vt 0.744140625 0.5390625 0
vn 0 0 1
vn -0 -0 1
vn -0 -0 1
vn -0 -0 1
vn 0 -0 -1
vn -0 -0 -1
vn -0 0 -1
vn -0 -0 -1
vn -0 1 -0
vn 0 1 0
vn -0 1 -0
vn -0 1 -0
vn -0 -1 -0
vn 0 -1 -0
vn -0 -1 -0
vn -0 -1 0
vn 1 -0 -0
vn 1 0 0
vn 1 -0 -0
vn 1 -0 -0
vn -1 -0 -0
vn -1 -0 0
vn -1 -0 -0
vn -1 0 -0
vn 0 0 1
vn -0 -0 1
vn -0 -0 1
vn -0 -0 1
vn 0 -0 -1
vn -0 -0 -1
vn -0 0 -1
vn -0 -0 -1
vn -0 1 -0
vn 0 1 0
vn -0 1 -0
vn -0 1 -0
vn -0 -1 -0
vn 0 -1 -0
vn -0 -1 -0
vn -0 -1 0
vn 1 -0 -0
vn 1 0 0
vn 1 -0 -0
vn 1 -0 -0
vn -1 -0 -0
vn -1 -0 0
vn -1 -0 -0
vn -1 0 -0
vn -0 -1 -0
vn 0 -1 -0
vn -0 -1 -0
vn -0 -1 0
vn -0 1 -0
vn 0 1 0
vn -0 1 -0
vn -0 1 -0
vn -0 -0 1
vn -0 -0 1
vn 0 0 1
vn -0 -0 1
vn -0 0 -1
vn -0 -0 -1
vn 0 -0 -1
vn -0 -0 -1
vn 1 0 0
vn 1 -0 -0
vn 1 -0 -0
vn 1 -0 -0
vn -1 0 -0
vn -1 -0 -0
vn -1 -0 0
vn -1 -0 -0
vn -0 -1 -0
vn -0 -1 0
vn -0 -1 -0
vn 0 -1 -0
vn -0 1 -0
vn -0 1 -0
vn -0 1 -0
vn 0 1 0
vn -0 0 -1
vn -0 -0 -1
vn 0 -0 -1
vn -0 -0 -1
vn -0 -0 1
vn -0 -0 1
vn 0 0 1
vn -0 -0 1
vn -1 -0 0
vn -1 -0 -0
vn -1 0 -0
vn -1 -0 -0
vn 1 -0 -0
vn 1 -0 -0
vn 1 0 0
vn 1 -0 -0
vn -0 -0 1
vn -0 -0 1
vn -0 -0 1
vn 0 0 1
vn -0 -0 -1
vn 0 -0 -1
vn -0 -0 -1
vn -0 0 -1
vn -1 0 -0
vn -1 -0 -0
vn -1 -0 0
vn -1 -0 -0
vn 1 0 0
vn 1 -0 -0
vn 1 -0 -0
vn 1 -0 -0
vn -0 1 -0
vn -0 1 -0
vn 0 1 0
vn -0 1 -0
vn 0 -1 -0
vn -0 -1 -0
vn -0 -1 0
vn -0 -1 -0
vn -0 -0 -1
vn -0 0 -1
vn -0 -0 -1
vn 0 -0 -1
vn -0 -0 1
vn 0 0 1
vn -0 -0 1
vn -0 -0 1
vn 1 -0 -0
vn 1 -0 -0
vn 1 0 0
vn 1 -0 -0
vn -1 -0 0
vn -1 -0 -0
vn -1 0 -0
vn -1 -0 -0
vn 0 1 0
vn -0 1 -0
vn -0 1 -0
vn -0 1 -0
vn -0 -1 0
vn -0 -1 -0
vn 0 -1 -0
vn -0 -1 -0
g 
f 1/1/1 3/2/2 4/3/3 2/4/4
f 5/5/5 7/6/6 8/7/7 6/8/8
f 7/9/9 4/10/10 3/11/11 8/12/12
f 6/13/13 1/14/14 2/15/15 5/16/16
f 6/17/17 8/18/18 3/19/19 1/20/20
f 2/21/21 4/22/22 7/23/23 5/24/24
f 9/25/25 11/26/26 12/27/27 10/28/28
f 13/29/29 15/30/30 16/31/31 14/32/32
f 15/33/33 12/34/34 11/35/35 16/36/36
f 14/37/37 9/38/38 10/39/39 13/40/40
f 14/41/41 16/42/42 11/43/43 9/44/44
f 10/45/45 12/46/46 15/47/47 13/48/48
f 17/49/49 19/50/50 20/51/51 18/52/52
f 21/53/53 23/54/54 24/55/55 22/56/56
f 23/57/57 20/58/58 19/59/59 24/60/60
f 22/61/61 17/62/62 18/63/63 21/64/64
f 22/65/65 24/66/66 19/67/67 17/68/68
f 18/69/69 20/70/70 23/71/71 21/72/72
f 25/73/73 27/74/74 28/75/75 26/76/76
f 29/77/77 31/78/78 32/79/79 30/80/80
f 31/81/81 28/82/82 27/83/83 32/84/84
f 30/85/85 25/86/86 26/87/87 29/88/88
f 30/89/89 32/90/90 27/91/91 25/92/92
f 26/93/93 28/94/94 31/95/95 29/96/96
f 33/97/97 35/98/98 36/99/99 34/100/100
f 37/101/101 39/102/102 40/103/103 38/104/104
f 39/105/105 36/106/106 35/107/107 40/108/108
f 38/109/109 33/110/110 34/111/111 37/112/112
f 38/113/113 40/114/114 35/115/115 33/116/116
f 34/117/117 36/118/118 39/119/119 37/120/120
f 41/121/121 43/122/122 44/123/123 42/124/124
f 45/125/125 47/126/126 48/127/127 46/128/128
f 47/129/129 44/130/130 43/131/131 48/132/132
f 46/133/133 41/134/134 42/135/135 45/136/136
f 46/137/137 48/138/138 43/139/139 41/140/140
f 42/141/141 44/142/142 47/143/143 45/144/144
